<svg width="154" height="27" viewBox="0 0 154 27" fill="none" xmlns="http://www.w3.org/2000/svg">
<g id="3 1" clip-path="url(#clip0_1_1262)">
<path id="Vector" d="M29.2428 21.8789C30.4207 23.0519 30.4207 24.9478 29.2428 26.1208C28.065 27.2937 26.161 27.2937 24.9832 26.1208L15.0634 16.2415L5.1426 26.1208C4.56682 26.6941 3.79566 27 3.0123 27C2.62343 27 2.23175 26.928 1.85885 26.7718C0.734523 26.3097 0 25.2116 0 24.0003V2.99969C0 1.3413 1.34976 0 3.0123 0C4.67484 0 6.02459 1.3413 6.02459 2.99969V16.7578L12.9331 9.8783C13.2214 9.5874 13.5567 9.37134 13.9156 9.22449C14.265 9.08044 14.651 9 15.054 9H27.1135C28.776 9 30.1258 10.3413 30.1258 11.9997C30.1258 13.6581 28.776 15.0003 27.1135 15.0003H22.3353L29.2438 21.8789H29.2428Z" fill="black"/>
<path id="Vector_2" d="M61.7601 18C61.7601 22.9621 57.7051 27 52.7222 27H40.6721C35.6892 27 31.6343 22.9621 31.6343 18C31.6343 13.0379 35.6892 9 40.6721 9H52.7222C57.7051 9 61.7601 13.0379 61.7601 18ZM55.7355 18C55.7355 16.3444 54.3829 15.0003 52.7222 15.0003H40.6721C39.0124 15.0003 37.6589 16.3444 37.6589 18C37.6589 19.6556 39.0114 20.9997 40.6721 20.9997H52.7222C54.3819 20.9997 55.7355 19.6565 55.7355 18Z" fill="black"/>
<path id="Vector_3" d="M94.5224 2.99969V23.9994C94.5224 25.2144 93.7869 26.3097 92.6636 26.7708C92.2897 26.927 91.898 26.9991 91.5092 26.9991C90.7258 26.9991 89.9547 26.696 89.3789 26.1208L78.2117 15.0003H73.4335C71.7738 15.0003 70.4203 16.3444 70.4203 18C70.4203 19.6556 71.7729 20.9997 73.4335 20.9997H79.459C81.1216 20.9997 82.4713 22.341 82.4713 23.9994C82.4713 25.6578 81.1216 26.9991 79.459 26.9991H73.4335C68.4506 26.9991 64.3957 22.9621 64.3957 18C64.3957 13.0379 68.4506 9 73.4335 9H79.459C80.2574 9 81.0258 9.31709 81.5884 9.87924L88.4959 16.7588V2.99969C88.4959 1.3413 89.8457 0 91.5082 0C93.1708 0 94.5205 1.34411 94.5205 2.99969H94.5224Z" fill="black"/>
<path id="Vector_4" d="M120.376 26.1208C119.789 26.7063 119.018 26.9991 118.247 26.9991C117.476 26.9991 116.705 26.7082 116.118 26.1208L104.949 15.0003H100.171C98.5078 15.0003 97.1581 13.659 97.1581 11.9997C97.1581 10.3404 98.5078 9 100.171 9H106.197C106.995 9 107.763 9.31709 108.326 9.87924L120.376 21.8789C121.554 23.0519 121.554 24.9506 120.376 26.1208ZM103.185 2.99969C103.185 1.34317 104.533 0 106.198 0C107.862 0 109.21 1.34317 109.21 2.99969C109.21 4.6562 107.861 5.99938 106.198 5.99938C104.534 5.99938 103.185 4.6562 103.185 2.99969Z" fill="black"/>
<path id="Vector_5" d="M153.116 21.8789C154.294 23.0518 154.294 24.9478 153.116 26.1207C152.529 26.7063 151.758 26.999 150.986 26.999C150.214 26.999 149.444 26.7081 148.856 26.1207L143.714 20.9997H134.158L129.016 26.1207C127.838 27.2937 125.934 27.2937 124.756 26.1207C123.578 24.9478 123.578 23.0518 124.756 21.8789L128.651 18L124.756 14.1211C123.578 12.9481 123.578 11.0522 124.756 9.87921C125.934 8.70628 127.838 8.70628 129.016 9.87921L134.158 15.0003H143.714L148.856 9.87921C150.034 8.70628 151.938 8.70628 153.116 9.87921C154.294 11.0522 154.294 12.9481 153.116 14.1211L149.221 18L153.116 21.8789Z" fill="#1FFF1A"/>
</g>
<defs>
<clipPath id="clip0_1_1262">
<rect width="154" height="27" fill="white"/>
</clipPath>
</defs>
</svg>
