<svg width="24" height="25" viewBox="0 0 24 25" fill="none" xmlns="http://www.w3.org/2000/svg">
<g id="Group">
<path id="Vector" d="M23.9187 12.5004C23.9187 18.4161 19.5349 23.3067 13.84 24.1003C13.3075 24.1742 12.7627 24.2128 12.2097 24.2128C11.5714 24.2128 10.9446 24.1619 10.3341 24.0634C4.75824 23.1656 0.5 18.3299 0.5 12.5004C0.5 6.03158 5.7428 0.787231 12.2089 0.787231C18.675 0.787231 23.9187 6.03158 23.9187 12.5004Z" fill="#1877F2"/>
<path id="Vector_2" d="M13.84 10.1918V12.7434H16.9955L16.4959 16.1805H13.84V24.0995C13.3075 24.1734 12.7627 24.212 12.2097 24.212C11.5714 24.212 10.9446 24.1611 10.3342 24.0626V16.1805H7.42395V12.7434H10.3342V9.62138C10.3342 7.6845 11.9037 6.11366 13.8408 6.11366V6.1153C13.8466 6.1153 13.8515 6.11366 13.8573 6.11366H16.9964V9.08627H14.9452C14.3356 9.08627 13.8408 9.58116 13.8408 10.191L13.84 10.1918Z" fill="white"/>
</g>
</svg>
