<svg width="25" height="25" viewBox="0 0 25 25" fill="none" xmlns="http://www.w3.org/2000/svg">
<g id="Group">
<path id="Vector" d="M24.2413 12.5004C24.2413 18.4161 19.8576 23.3067 14.1627 24.1003C13.6302 24.1742 13.0854 24.2128 12.5324 24.2128C11.8941 24.2128 11.2672 24.1619 10.6568 24.0634C5.08172 23.1656 0.823486 18.3299 0.823486 12.5004C0.823486 6.03158 6.06628 0.787231 12.5332 0.787231C19.0002 0.787231 24.243 6.03158 24.243 12.5004H24.2413Z" fill="#1C1C1B"/>
<g id="layer1">
<path id="path1009" d="M5.57234 5.95278L10.9727 13.175L5.5387 19.0472H6.76202L11.5199 13.9063L15.3638 19.0472H19.5261L13.8222 11.4187L18.8803 5.95278H17.657L13.2757 10.6875L9.7354 5.95278H5.57315H5.57234ZM7.3708 6.85392H9.2825L17.726 18.1461H15.8143L7.3708 6.85392Z" fill="white"/>
</g>
</g>
</svg>
