<svg width="24" height="25" viewBox="0 0 24 25" fill="none" xmlns="http://www.w3.org/2000/svg">
<g id="Group">
<path id="Vector" d="M23.5 12.4668C23.5 6.01634 18.2724 0.787231 11.8239 0.787231C5.37537 0.787231 0.147797 6.01634 0.147797 12.4668C0.147797 18.9172 5.37537 24.1463 11.8239 24.1463C18.2724 24.1463 23.5 18.9172 23.5 12.4668Z" fill="#FF0209"/>
<g id="Group_2">
<path id="Vector_2" d="M16.7803 17.6397C16.4325 17.6775 16.0764 17.684 15.7351 17.6832C13.0726 17.6807 10.4102 17.6783 7.7486 17.6766C6.9109 17.6766 5.99854 17.6496 5.35119 17.1169C4.62179 16.5153 4.47001 15.4722 4.41093 14.5284C4.32889 13.235 4.32232 11.9374 4.3896 10.6432C4.42652 9.93242 4.49134 9.20445 4.79737 8.56101C5.01726 8.09895 5.38401 7.68367 5.85331 7.46536C6.39893 7.21176 6.96997 7.2569 7.55743 7.25608C8.96372 7.25444 10.37 7.25362 11.7763 7.25198C13.2384 7.25033 14.7013 7.24951 16.1633 7.24787C16.8542 7.24787 17.5959 7.26182 18.1595 7.66151C18.8873 8.17692 19.085 9.15767 19.1761 10.0449C19.3443 11.6789 19.3468 13.3302 19.1827 14.9642C19.1146 15.638 19.0013 16.3504 18.5575 16.8617C18.1177 17.3689 17.4654 17.5642 16.7812 17.6389L16.7803 17.6397Z" fill="white"/>
<path id="Vector_3" d="M14.2049 12.4668L10.2371 10.1754V14.7582L14.2049 12.4668Z" fill="#FF0209"/>
</g>
</g>
</svg>
